<svg t="1647702337439" class="icon" viewBox="0 0 1024 1024" version="1.1" xmlns="http://www.w3.org/2000/svg" p-id="2712" data-darkreader-inline-fill="" width="200" height="200"><path d="M290.133333 256h-238.933333c-10.24 0-17.066667-6.826667-17.066667-17.066667V102.4c0-10.24 6.826667-17.066667 17.066667-17.066667h238.933333c10.24 0 17.066667 6.826667 17.066667 17.066667v136.533333c0 10.24-6.826667 17.066667-17.066667 17.066667zM68.266667 221.866667h204.8v-102.4H68.266667v102.4z" fill="" p-id="2713"></path><path d="M290.133333 563.2h-238.933333c-3.413333 0-10.24-3.413333-13.653333-3.413333l-34.133334-34.133334c0-3.413333-3.413333-10.24-3.413333-13.653333V238.933333c0-10.24 6.826667-17.066667 17.066667-17.066666h34.133333c10.24 0 17.066667 6.826667 17.066667 17.066666s-6.826667 17.066667-17.066667 17.066667H34.133333v249.173333l23.893334 23.893334h225.28l23.893333-23.893334V256h-17.066667c-10.24 0-17.066667-6.826667-17.066666-17.066667s6.826667-17.066667 17.066666-17.066666h34.133334c10.24 0 17.066667 6.826667 17.066666 17.066666v273.066667c0 3.413333-3.413333 10.24-3.413333 13.653333l-34.133333 34.133334c-3.413333 0-10.24 3.413333-13.653334 3.413333zM119.466667 187.733333c-10.24 0-17.066667-6.826667-17.066667-17.066666V102.4c0-10.24 6.826667-17.066667 17.066667-17.066667s17.066667 6.826667 17.066666 17.066667v68.266667c0 10.24-6.826667 17.066667-17.066666 17.066666zM221.866667 187.733333c-10.24 0-17.066667-6.826667-17.066667-17.066666V102.4c0-10.24 6.826667-17.066667 17.066667-17.066667s17.066667 6.826667 17.066666 17.066667v68.266667c0 10.24-6.826667 17.066667-17.066666 17.066666z" fill="" p-id="2714"></path><path d="M256 392.533333h-170.666667c-10.24 0-17.066667-6.826667-17.066666-17.066666V238.933333c0-10.24 6.826667-17.066667 17.066666-17.066666s17.066667 6.826667 17.066667 17.066666v119.466667h136.533333V238.933333c0-10.24 6.826667-17.066667 17.066667-17.066666s17.066667 6.826667 17.066667 17.066666v136.533334c0 10.24-6.826667 17.066667-17.066667 17.066666zM187.733333 460.8h-34.133333c-10.24 0-17.066667-6.826667-17.066667-17.066667s6.826667-17.066667 17.066667-17.066666h34.133333c10.24 0 17.066667 6.826667 17.066667 17.066666s-6.826667 17.066667-17.066667 17.066667zM221.866667 733.866667h-102.4c-6.826667 0-10.24-3.413333-13.653334-6.826667l-51.2-68.266667c-6.826667-6.826667-3.413333-17.066667 3.413334-23.893333 6.826667-6.826667 17.066667-3.413333 23.893333 3.413333l44.373333 61.44h85.333334l44.373333-61.44c6.826667-6.826667 17.066667-10.24 23.893333-3.413333s10.24 17.066667 3.413334 23.893333l-51.2 68.266667c0 3.413333-3.413333 6.826667-10.24 6.826667z" fill="" p-id="2715"></path><path d="M273.066667 665.6H68.266667c-6.826667 0-17.066667-6.826667-17.066667-13.653333l-17.066667-102.4c0-10.24 3.413333-17.066667 13.653334-20.48 10.24 0 17.066667 3.413333 20.48 13.653333l13.653333 88.746667h177.493333l13.653334-88.746667c0-10.24 10.24-17.066667 20.48-13.653333 10.24 0 17.066667 10.24 13.653333 20.48l-17.066667 102.4c0 6.826667-10.24 13.653333-17.066666 13.653333zM153.6 938.666667c-10.24 0-17.066667-6.826667-17.066667-17.066667 0-112.64 17.066667-204.8 17.066667-208.213333 0-10.24 10.24-17.066667 20.48-13.653334 10.24 0 17.066667 10.24 13.653333 20.48 0 0-17.066667 95.573333-17.066666 201.386667 0 10.24-6.826667 17.066667-17.066667 17.066667zM1006.933333 733.866667h-785.066666c-10.24 0-17.066667-6.826667-17.066667-17.066667s6.826667-17.066667 17.066667-17.066667h785.066666c10.24 0 17.066667 6.826667 17.066667 17.066667s-6.826667 17.066667-17.066667 17.066667zM631.466667 921.6c-10.24 0-17.066667-6.826667-17.066667-17.066667V819.2c0-10.24 6.826667-17.066667 17.066667-17.066667s17.066667 6.826667 17.066666 17.066667v85.333333c0 10.24-6.826667 17.066667-17.066666 17.066667z" fill="" p-id="2716"></path><path d="M802.133333 938.666667h-341.333333c-10.24 0-17.066667-6.826667-17.066667-17.066667s6.826667-17.066667 17.066667-17.066667h341.333333c10.24 0 17.066667 6.826667 17.066667 17.066667s-6.826667 17.066667-17.066667 17.066667zM938.666667 836.266667h-648.533334C242.346667 836.266667 204.8 798.72 204.8 750.933333v-34.133333c0-3.413333 0-6.826667 3.413333-10.24l47.786667-64.853333 17.066667-98.986667c0-3.413333 3.413333-6.826667 3.413333-10.24l30.72-27.306667V307.2c0-10.24 6.826667-17.066667 17.066667-17.066667h614.4c47.786667 0 85.333333 37.546667 85.333333 85.333334v375.466666c0 47.786667-37.546667 85.333333-85.333333 85.333334zM238.933333 723.626667v27.306666c0 27.306667 23.893333 51.2 51.2 51.2h648.533334c27.306667 0 51.2-23.893333 51.2-51.2V375.466667c0-27.306667-23.893333-51.2-51.2-51.2H341.333333V512c0 3.413333-3.413333 10.24-3.413333 13.653333l-30.72 27.306667-17.066667 95.573333c0 3.413333 0 6.826667-3.413333 6.826667l-47.786667 68.266667z" fill="" p-id="2717"></path></svg>